<?xml version="1.0" standalone="no"?>
<!DOCTYPE svg PUBLIC "-//W3C//DTD SVG 20010904//EN"
 "http://www.w3.org/TR/2001/REC-SVG-20010904/DTD/svg10.dtd">
<svg version="1.0" xmlns="http://www.w3.org/2000/svg"
 width="344.000000pt" height="344.000000pt" viewBox="0 0 344.000000 344.000000"
 preserveAspectRatio="xMidYMid meet">
<metadata>
Created by potrace 1.11, written by Peter Selinger 2001-2013
</metadata>
<g transform="translate(0.000000,344.000000) scale(0.100000,-0.100000)"
fill="#000000" stroke="none">
<path d="M2358 2635 c-270 -57 -443 -256 -437 -500 2 -92 11 -130 45 -200 45
-94 137 -173 273 -236 36 -17 71 -32 76 -33 6 -1 15 -4 20 -7 6 -4 75 -28 155
-54 158 -51 276 -102 325 -140 82 -62 92 -198 22 -273 -54 -58 -140 -82 -282
-79 -120 3 -165 18 -221 74 -44 44 -114 225 -114 296 0 9 -5 17 -10 17 -11 0
-325 -68 -347 -75 -11 -4 -11 -8 19 -139 41 -184 162 -342 319 -418 122 -58
194 -73 359 -73 145 0 167 2 249 25 102 27 209 92 279 169 31 33 93 132 99
156 1 5 9 36 17 67 8 31 14 91 14 132 0 268 -130 398 -548 546 -327 116 -386
147 -408 216 -16 51 3 118 46 160 45 43 105 62 207 62 166 0 253 -64 331 -246
2 -4 274 65 308 77 l25 10 -15 53 c-64 215 -222 355 -462 408 -96 21 -257 24
-344 5z"/>
<path d="M220 1718 l0 -893 166 0 c109 1 168 5 172 12 4 6 7 270 6 587 0 317
0 575 2 574 4 -5 104 -181 104 -184 0 -1 24 -44 54 -96 29 -51 66 -115 81
-143 15 -27 48 -86 73 -130 24 -44 58 -105 75 -135 16 -30 47 -84 67 -120 21
-36 48 -85 62 -110 115 -208 141 -250 156 -251 60 -4 322 -3 323 1 1 7 1 1740
0 1763 -1 15 -16 17 -171 17 -129 0 -170 -3 -171 -12 0 -7 -1 -271 -1 -586 0
-315 -2 -572 -3 -570 -5 5 -61 102 -97 168 -20 36 -48 88 -63 115 -15 28 -49
88 -75 135 -27 47 -66 117 -87 155 -21 39 -103 189 -183 333 l-145 262 -172 0
-173 0 0 -892z"/>
</g>
</svg>
